<svg xmlns="http://www.w3.org/2000/svg" viewBox="0 0 96.11 27.58"><defs><style>.cls-1{fill:#ffc600;}</style></defs><g id="Layer_2" data-name="Layer 2"><g id="Layer_1-2" data-name="Layer 1"><rect class="cls-1" width="96.11" height="27.58"></rect><path d="M9.1,9.23c-1.32,0-1.82.54-1.82,1.21s.94,1.08,2.64,1.41c2.54.53,6,1.27,6,4.76,0,3.11-2.28,5.17-6.4,5.17a9.38,9.38,0,0,1-6.82-2.46l2.1-3a6.89,6.89,0,0,0,4.9,2c1.36,0,2.19-.57,2.19-1.32s-1-1.22-2.63-1.57C6.77,15,3.22,14.32,3.22,10.67c0-2.59,2.19-4.84,6.13-4.84A9.36,9.36,0,0,1,15.59,8l-2.17,2.85A7.14,7.14,0,0,0,9.1,9.23ZM17.8,21.5V6.06h4V21.5Zm14.11-12v12H28v-12H23.64V6.06H36.19V9.53Zm17.42,8.61V21.5H38.07V6.06H49.33V9.42H42V12h7.14v3.38H42v2.77Zm7.55-8.91c-1.31,0-1.82.54-1.82,1.21s.95,1.08,2.65,1.41c2.53.53,6,1.27,6,4.76,0,3.11-2.28,5.17-6.4,5.17a9.35,9.35,0,0,1-6.81-2.46l2.09-3a6.94,6.94,0,0,0,4.91,2c1.35,0,2.18-.57,2.18-1.32s-1-1.22-2.62-1.57C54.56,15,51,14.32,51,10.67c0-2.59,2.19-4.84,6.12-4.84A9.33,9.33,0,0,1,63.37,8l-2.16,2.85a7.15,7.15,0,0,0-4.33-1.6Zm20,8.91V21.5H65.58V6.06H76.84V9.42h-7.3V12h7.14v3.38H69.54v2.77Zm9.71-8.81a4.23,4.23,0,0,0-4.16,4.46,4.23,4.23,0,0,0,4.16,4.47A3.73,3.73,0,0,0,90,16l3.41,1.62a7.2,7.2,0,0,1-6.82,4.15,7.84,7.84,0,0,1-8.19-8,7.82,7.82,0,0,1,8.19-8A7.15,7.15,0,0,1,93.37,10L90,11.57a3.72,3.72,0,0,0-3.41-2.24Z"></path></g></g></svg>